<svg width="211" height="58" viewBox="0 0 211 58" fill="none" xmlns="http://www.w3.org/2000/svg">
<path d="M90.2878 21.7905C90.2078 21.1771 89.8478 20.8705 89.2078 20.8705H84.6478C84.6211 21.6705 84.5945 22.4705 84.5678 23.2705C84.5678 24.0705 84.5678 24.8971 84.5678 25.7505V37.1905C84.5678 37.8571 84.5678 38.5238 84.5678 39.1905C84.5945 39.8305 84.6078 40.4838 84.6078 41.1505C84.6611 41.8171 84.9811 42.1638 85.5678 42.1905L87.3678 42.3905C88.0078 42.4705 88.3278 42.7905 88.3278 43.3505C88.3278 43.9371 87.9945 44.2305 87.3278 44.2305H77.1678C76.5011 44.2305 76.1678 43.9371 76.1678 43.3505C76.1678 42.7638 76.4878 42.4438 77.1278 42.3905L78.9278 42.1905C79.5411 42.1105 79.8611 41.7638 79.8878 41.1505C79.8878 40.5105 79.8878 39.8705 79.8878 39.2305C79.9145 38.5638 79.9278 37.9105 79.9278 37.2705V25.8305C79.9278 24.9771 79.9145 24.1505 79.8878 23.3505C79.8878 22.5238 79.8745 21.6971 79.8478 20.8705H75.2878C74.6478 20.8705 74.2878 21.1771 74.2078 21.7905L73.7278 24.9105C73.6478 25.5238 73.2878 25.8305 72.6478 25.8305H72.0078C71.3411 25.8305 71.0211 25.4971 71.0478 24.8305L71.2078 19.8305C71.2611 19.1638 71.6078 18.8305 72.2478 18.8305H92.2478C92.8878 18.8305 93.2345 19.1638 93.2878 19.8305L93.4478 24.8305C93.4745 25.4971 93.1545 25.8305 92.4878 25.8305H91.8478C91.2078 25.8305 90.8478 25.5238 90.7678 24.9105L90.2878 21.7905ZM113.312 33.7105C113.205 34.2971 112.832 34.5905 112.192 34.5905H100.592C100.645 37.0171 101.232 38.8438 102.352 40.0705C103.472 41.2971 104.925 41.9105 106.712 41.9105C107.752 41.9105 108.632 41.7238 109.352 41.3505C110.099 40.9505 110.779 40.4038 111.392 39.7105C111.685 39.3905 111.965 39.2305 112.232 39.2305C112.365 39.2305 112.485 39.2705 112.592 39.3505C112.992 39.6171 113.045 40.0171 112.752 40.5505C112.059 41.9105 111.059 42.9505 109.752 43.6705C108.445 44.3905 106.912 44.7505 105.152 44.7505C103.659 44.7505 102.325 44.4971 101.152 43.9905C100.005 43.4838 99.0322 42.7905 98.2322 41.9105C97.4588 41.0038 96.8722 39.9371 96.4722 38.7105C96.0722 37.4838 95.8722 36.1505 95.8722 34.7105C95.8722 33.3238 96.0988 32.0038 96.5522 30.7505C97.0055 29.4971 97.6455 28.4038 98.4722 27.4705C99.3255 26.5105 100.339 25.7638 101.512 25.2305C102.712 24.6705 104.032 24.3905 105.472 24.3905C106.672 24.3905 107.752 24.5905 108.712 24.9905C109.699 25.3905 110.539 25.9505 111.232 26.6705C111.925 27.3638 112.459 28.2038 112.832 29.1905C113.205 30.1771 113.392 31.2705 113.392 32.4705C113.392 32.6838 113.392 32.8971 113.392 33.1105C113.392 33.2971 113.365 33.4971 113.312 33.7105ZM100.672 32.7505H106.672C107.632 32.7505 108.272 32.5505 108.592 32.1505C108.939 31.7505 109.112 31.1905 109.112 30.4705C109.112 29.2705 108.765 28.2705 108.072 27.4705C107.405 26.6705 106.565 26.2705 105.552 26.2705C104.725 26.2705 104.005 26.4838 103.392 26.9105C102.805 27.3105 102.312 27.8305 101.912 28.4705C101.539 29.1105 101.245 29.8171 101.032 30.5905C100.845 31.3371 100.725 32.0571 100.672 32.7505ZM134.054 41.5105C134.108 41.4571 134.281 41.5638 134.574 41.8305C134.894 42.1505 134.881 42.5505 134.534 43.0305C134.108 43.6438 133.641 44.0571 133.134 44.2705C132.628 44.5105 132.028 44.6305 131.334 44.6305C130.241 44.6305 129.374 44.4038 128.734 43.9505C128.121 43.4705 127.694 42.8438 127.454 42.0705C126.601 42.9238 125.774 43.6038 124.974 44.1105C124.174 44.5905 123.148 44.8305 121.894 44.8305C120.428 44.8305 119.188 44.4305 118.174 43.6305C117.188 42.8305 116.694 41.6571 116.694 40.1105C116.694 39.0705 116.974 38.1771 117.534 37.4305C118.121 36.6838 118.841 36.0438 119.694 35.5105C120.574 34.9771 121.508 34.5371 122.494 34.1905C123.481 33.8438 124.401 33.5505 125.254 33.3105L127.294 32.7105V31.6705C127.294 29.9105 127.028 28.7105 126.494 28.0705C125.988 27.4038 125.108 27.0705 123.854 27.0705C123.721 27.0705 123.588 27.0705 123.454 27.0705C123.348 27.0705 123.228 27.0838 123.094 27.1105C122.561 27.1371 122.228 27.4571 122.094 28.0705L121.734 29.7105C121.414 31.3105 120.614 32.1105 119.334 32.1105C118.801 32.1105 118.348 31.9505 117.974 31.6305C117.601 31.2838 117.388 30.8438 117.334 30.3105C117.574 28.8171 118.374 27.6038 119.734 26.6705C121.121 25.7371 122.934 25.2705 125.174 25.2705C127.388 25.2705 129.001 25.8038 130.014 26.8705C131.028 27.9371 131.534 29.8171 131.534 32.5105V40.5505C131.534 41.7505 131.908 42.3505 132.654 42.3505C132.974 42.3505 133.268 42.2571 133.534 42.0705C133.721 41.9371 133.841 41.8305 133.894 41.7505C133.948 41.6438 134.001 41.5638 134.054 41.5105ZM127.294 40.5105V34.3105C126.654 34.4705 125.961 34.6705 125.214 34.9105C124.494 35.1505 123.814 35.4571 123.174 35.8305C122.534 36.2038 122.001 36.6705 121.574 37.2305C121.148 37.7638 120.934 38.4171 120.934 39.1905C120.934 40.0971 121.201 40.8038 121.734 41.3105C122.294 41.8171 123.028 42.0705 123.934 42.0705C124.468 42.0705 124.961 41.9638 125.414 41.7505C125.894 41.5371 126.521 41.1238 127.294 40.5105ZM151.333 39.9505C151.627 39.5505 151.907 39.3505 152.173 39.3505C152.253 39.3505 152.347 39.3771 152.453 39.4305C152.853 39.6705 152.933 40.0705 152.693 40.6305C152.08 41.9905 151.147 43.0305 149.893 43.7505C148.667 44.4705 147.213 44.8305 145.533 44.8305C144.093 44.8305 142.813 44.5905 141.693 44.1105C140.573 43.6038 139.627 42.9238 138.853 42.0705C138.107 41.1905 137.533 40.1638 137.133 38.9905C136.76 37.7905 136.573 36.4971 136.573 35.1105C136.573 33.7505 136.8 32.4705 137.253 31.2705C137.707 30.0705 138.347 29.0305 139.173 28.1505C140 27.2438 140.987 26.5371 142.133 26.0305C143.28 25.5238 144.56 25.2705 145.973 25.2705C146.773 25.2705 147.56 25.3771 148.333 25.5905C149.133 25.8038 149.853 26.1371 150.493 26.5905C151.16 27.0171 151.72 27.5638 152.173 28.2305C152.627 28.8705 152.893 29.6171 152.973 30.4705C152.787 31.5638 152.107 32.1105 150.933 32.1105C149.573 32.1105 148.787 31.2838 148.573 29.6305L148.293 28.1105C148.187 27.6305 147.96 27.3371 147.613 27.2305C147.293 27.1238 146.933 27.0705 146.533 27.0705C145.547 27.0705 144.707 27.3105 144.013 27.7905C143.32 28.2438 142.76 28.8438 142.333 29.5905C141.907 30.3105 141.587 31.1238 141.373 32.0305C141.187 32.9105 141.093 33.7638 141.093 34.5905C141.093 37.0971 141.64 38.9771 142.733 40.2305C143.827 41.4838 145.227 42.1105 146.933 42.1105C148.747 42.1105 150.213 41.3905 151.333 39.9505ZM174.114 41.3505C174.141 41.9105 174.447 42.2571 175.034 42.3905L175.714 42.5105C176.301 42.6438 176.594 42.9638 176.594 43.4705C176.594 43.9771 176.261 44.2305 175.594 44.2305H168.194C167.527 44.2305 167.194 43.9771 167.194 43.4705C167.194 42.9905 167.501 42.6838 168.114 42.5505L168.954 42.3905C169.541 42.2571 169.847 41.9105 169.874 41.3505V32.6305C169.874 31.0305 169.674 29.8971 169.274 29.2305C168.874 28.5371 168.167 28.1905 167.154 28.1905C166.327 28.1905 165.527 28.3905 164.754 28.7905C163.981 29.1638 163.167 29.7771 162.314 30.6305V41.3105C162.314 41.9238 162.607 42.2838 163.194 42.3905L163.874 42.5105C164.461 42.6438 164.754 42.9638 164.754 43.4705C164.754 43.9771 164.421 44.2305 163.754 44.2305H156.394C155.727 44.2305 155.394 43.9771 155.394 43.4705C155.394 42.9905 155.701 42.6838 156.314 42.5505L157.114 42.3905C157.701 42.2571 158.007 41.9105 158.034 41.3505V20.9105C158.034 20.2971 157.727 19.9505 157.114 19.8705L155.914 19.7105C155.301 19.6305 154.994 19.3505 154.994 18.8705C154.994 18.3905 155.274 18.0705 155.834 17.9105L161.074 16.5505C161.207 16.4971 161.314 16.4705 161.394 16.4705C161.501 16.4705 161.607 16.4705 161.714 16.4705C161.901 16.4705 162.021 16.4971 162.074 16.5505C162.234 16.6571 162.314 16.9771 162.314 17.5105L162.194 22.1505V28.7105C163.234 27.5371 164.274 26.6705 165.314 26.1105C166.354 25.5505 167.527 25.2705 168.834 25.2705C170.594 25.2705 171.914 25.8171 172.794 26.9105C173.674 27.9771 174.114 29.7371 174.114 32.1905V41.3505ZM182.192 21.2305L180.832 20.0705C180.192 19.5371 179.752 19.0571 179.512 18.6305C179.272 18.1771 179.152 17.6971 179.152 17.1905C179.152 16.3371 179.405 15.6705 179.912 15.1905C180.418 14.7105 181.058 14.4705 181.832 14.4705C183.005 14.4705 183.792 14.8305 184.192 15.5505C184.592 16.2438 184.792 17.1905 184.792 18.3905C184.792 20.0171 184.338 21.5105 183.432 22.8705C182.552 24.2038 181.485 25.3371 180.232 26.2705C179.992 26.4305 179.778 26.5105 179.592 26.5105C179.325 26.5105 179.125 26.4038 178.992 26.1905C178.752 25.7905 178.872 25.3905 179.352 24.9905C179.965 24.4571 180.498 23.8971 180.952 23.3105C181.432 22.6971 181.845 22.0038 182.192 21.2305ZM193.866 25.4705C193.973 25.5505 194.053 25.6571 194.106 25.7905C194.16 25.9238 194.2 26.1371 194.226 26.4305L194.506 29.7505C195.226 28.3371 196.053 27.2438 196.986 26.4705C197.946 25.6705 198.92 25.2705 199.906 25.2705C200.44 25.2705 200.986 25.4305 201.546 25.7505C202.106 26.0705 202.466 26.6171 202.626 27.3905C202.626 28.1371 202.4 28.7371 201.946 29.1905C201.493 29.6171 200.88 29.8305 200.106 29.8305C199.2 29.8305 198.346 29.4171 197.546 28.5905L197.346 28.3905C196.76 28.9238 196.226 29.5238 195.746 30.1905C195.293 30.8305 194.893 31.6038 194.546 32.5105V41.2305C194.573 41.8438 194.88 42.2038 195.466 42.3105L196.746 42.5505C197.36 42.6838 197.666 42.9905 197.666 43.4705C197.666 43.9771 197.333 44.2305 196.666 44.2305H188.666C188 44.2305 187.666 43.9771 187.666 43.4705C187.666 42.9905 187.973 42.6838 188.586 42.5505L189.386 42.3905C189.973 42.2571 190.28 41.9105 190.306 41.3505V34.1105C190.306 33.5771 190.306 33.0971 190.306 32.6705C190.306 32.2438 190.293 31.8705 190.266 31.5505C190.24 31.3371 190.226 31.1371 190.226 30.9505C190.226 30.7638 190.226 30.5638 190.226 30.3505C190.173 29.7371 189.853 29.3905 189.266 29.3105L188.306 29.1905C187.693 29.1105 187.386 28.8305 187.386 28.3505C187.386 27.8971 187.653 27.5638 188.186 27.3505L192.826 25.5505C193.066 25.4438 193.293 25.3905 193.506 25.3905C193.666 25.3905 193.786 25.4171 193.866 25.4705Z" fill="#22263C"/>
<line x1="54.0386" y1="10.0381" x2="54.0386" y2="51.3073" stroke="#22263C"/>
<path d="M0 21.4204L22.3786 10.9069L44.0577 21.4204L22.3786 30.4669L0 21.4204Z" fill="#22263C"/>
<path d="M6.69238 25.2163L22.3078 31.7237L36.8078 25.2163V49.0769L6.69238 43.654V25.2163Z" fill="#22263C"/>
<path d="M11.1538 34.6994C11.1538 34.5513 11.2702 34.4292 11.4181 34.4222C20.3305 34.0025 29.1865 34.2671 32.2951 34.3859C32.6051 34.3977 32.6872 34.8112 32.4082 34.9469C32.3673 34.9667 32.3225 34.9771 32.2771 34.9771L11.4315 34.9771C11.2781 34.9771 11.1538 34.8528 11.1538 34.6994Z" fill="white" fill-opacity="0.4"/>
<path d="M11.1538 37.652C11.1538 37.5039 11.2702 37.3818 11.4181 37.3749C20.3305 36.9552 29.1865 37.2197 32.2951 37.3385C32.6051 37.3504 32.6872 37.7639 32.4082 37.8995C32.3673 37.9194 32.3225 37.9297 32.2771 37.9297L11.4315 37.9297C11.2781 37.9297 11.1538 37.8054 11.1538 37.652Z" fill="white" fill-opacity="0.4"/>
</svg>
